<?xml version="1.0" encoding="UTF-8" standalone="no"?> <svg width="64" height="64" viewBox="0 0 64 64" fill="none" xmlns="http://www.w3.org/2000/svg">
<path d="M56 2.5H8C6.54212 2.50264 5.14471 3.08295 4.11383 4.11383C3.08295 5.14471 2.50264 6.54212 2.5 8V56C2.50264 57.4579 3.08295 58.8553 4.11383 59.8862C5.14471 60.917 6.54212 61.4974 8 61.5H56C57.4579 61.4974 58.8553 60.917 59.8862 59.8862C60.917 58.8553 61.4974 57.4579 61.5 56V8C61.4974 6.54212 60.917 5.14471 59.8862 4.11383C58.8553 3.08295 57.4579 2.50264 56 2.5V2.5ZM30.5 58.5H8C7.33696 58.5 6.70107 58.2366 6.23223 57.7678C5.76339 57.2989 5.5 56.663 5.5 56V33.5H30.5V58.5ZM30.5 30.5H5.5V8C5.5 7.33696 5.76339 6.70107 6.23223 6.23223C6.70107 5.76339 7.33696 5.5 8 5.5H30.5V30.5ZM58.5 56C58.5 56.663 58.2366 57.2989 57.7678 57.7678C57.2989 58.2366 56.663 58.5 56 58.5H33.5V33.5H58.5V56ZM58.5 30.5H33.5V5.5H56C56.663 5.5 57.2989 5.76339 57.7678 6.23223C58.2366 6.70107 58.5 7.33696 58.5 8V30.5Z" fill="black"/>
<path d="M12.4 19.4999H16.5V23.5999C16.5 23.9977 16.6581 24.3793 16.9394 24.6606C17.2207 24.9419 17.6022 25.0999 18 25.0999C18.3978 25.0999 18.7794 24.9419 19.0607 24.6606C19.342 24.3793 19.5 23.9977 19.5 23.5999V19.4999H23.6C23.9978 19.4999 24.3794 19.3419 24.6607 19.0606C24.942 18.7793 25.1 18.3977 25.1 17.9999C25.1 17.6021 24.942 17.2205 24.6607 16.9392C24.3794 16.6579 23.9978 16.4999 23.6 16.4999H19.5V12.3999C19.5 12.0021 19.342 11.6205 19.0607 11.3392C18.7794 11.0579 18.3978 10.8999 18 10.8999C17.6022 10.8999 17.2207 11.0579 16.9394 11.3392C16.6581 11.6205 16.5 12.0021 16.5 12.3999V16.4999H12.4C12.0022 16.4999 11.6207 16.6579 11.3394 16.9392C11.0581 17.2205 10.9 17.6021 10.9 17.9999C10.9 18.3977 11.0581 18.7793 11.3394 19.0606C11.6207 19.3419 12.0022 19.4999 12.4 19.4999V19.4999Z" fill="black"/>
<path d="M51.69 12.31C51.4057 12.0309 51.0233 11.8745 50.625 11.8745C50.2266 11.8745 49.8442 12.0309 49.56 12.31L46 15.88L42.44 12.31C42.1514 12.06 41.7788 11.9286 41.3973 11.9423C41.0157 11.9559 40.6535 12.1136 40.3836 12.3836C40.1136 12.6536 39.9559 13.0158 39.9423 13.3973C39.9286 13.7789 40.06 14.1514 40.31 14.44L43.88 18L40.31 21.56C40.06 21.8486 39.9286 22.2211 39.9423 22.6027C39.9559 22.9842 40.1136 23.3464 40.3836 23.6164C40.6535 23.8864 41.0157 24.0441 41.3973 24.0577C41.7788 24.0714 42.1514 23.94 42.44 23.69L46 20.12L49.56 23.69C49.6958 23.8467 49.8624 23.9739 50.0494 24.0634C50.2365 24.1529 50.44 24.2029 50.6473 24.2104C50.8545 24.2178 51.0611 24.1824 51.2541 24.1065C51.4471 24.0306 51.6224 23.9157 51.769 23.769C51.9157 23.6224 52.0305 23.4471 52.1065 23.2541C52.1824 23.0611 52.2177 22.8546 52.2103 22.6473C52.2029 22.4401 52.1529 22.2366 52.0633 22.0495C51.9738 21.8624 51.8467 21.6958 51.69 21.56L48.12 18L51.69 14.44C51.9691 14.1558 52.1254 13.7733 52.1254 13.375C52.1254 12.9766 51.9691 12.5942 51.69 12.31Z" fill="black"/>
<path d="M12.4 47.5H23.6C23.9978 47.5 24.3794 47.342 24.6607 47.0607C24.942 46.7794 25.1 46.3978 25.1 46C25.1 45.6022 24.942 45.2206 24.6607 44.9393C24.3794 44.658 23.9978 44.5 23.6 44.5H12.4C12.0022 44.5 11.6207 44.658 11.3394 44.9393C11.0581 45.2206 10.9 45.6022 10.9 46C10.9 46.3978 11.0581 46.7794 11.3394 47.0607C11.6207 47.342 12.0022 47.5 12.4 47.5V47.5Z" fill="black"/>
<path d="M40.4 47.5H51.6C51.9978 47.5 52.3794 47.342 52.6607 47.0607C52.942 46.7794 53.1 46.3978 53.1 46C53.1 45.6022 52.942 45.2206 52.6607 44.9393C52.3794 44.658 51.9978 44.5 51.6 44.5H40.4C40.0022 44.5 39.6207 44.658 39.3394 44.9393C39.0581 45.2206 38.9 45.6022 38.9 46C38.9 46.3978 39.0581 46.7794 39.3394 47.0607C39.6207 47.342 40.0022 47.5 40.4 47.5V47.5Z" fill="black"/>
<path d="M46 43.5C46.8284 43.5 47.5 42.8284 47.5 42C47.5 41.1716 46.8284 40.5 46 40.5C45.1716 40.5 44.5 41.1716 44.5 42C44.5 42.8284 45.1716 43.5 46 43.5Z" fill="black"/>
<path d="M46 51.5C46.8284 51.5 47.5 50.8284 47.5 50C47.5 49.1716 46.8284 48.5 46 48.5C45.1716 48.5 44.5 49.1716 44.5 50C44.5 50.8284 45.1716 51.5 46 51.5Z" fill="black"/>
</svg>
